#N canvas 0 22 450 300 10;
#X obj 60 100 bng 75 250 50 0 empty empty empty 17 7 0 10 -4034 -1
-1;
#X obj 60 189 s bangplay;
#X obj 51 65 control_grid-help;
#X obj 188 172 tgl 15 0 empty empty empty 17 7 0 10 -262144 -1 -1 0
1;
#X msg 188 193 \; pd dsp \$1;
#X connect 0 0 1 0;
#X connect 0 0 3 0;
#X connect 3 0 4 0;
