#N canvas 794 180 486 402 10;
#X obj 204 26 hradio 15 1 0 16 empty empty 1_bis_max_16_ctl-pts 0 -6
0 8 -262144 -1 -1 1;
#X obj 202 46 + 1;
#X msg 244 74 clear;
#X obj 31 109 control_grid;
#X text 281 74 & reinit control_grid;
#N canvas 768 224 401 273 read 0;
#X text 43 46 4chn-setup für raum 4010 (SEM mozarteum);
#X text 40 162 [1]________[2] \; ______________ \; [4]________[3] \;
;
#X text 40 134 Lautsprecheranordnung (vgl. X-Patch 4ch HD I/O );
#X text 40 84 [1] X-Patch 4ch HD I/O preset wählen \; [2] Pd-Preferences-AudioSettings...
(Ausgabe) ProTool HD Native wählen;
#X text 41 223 (vgl. [pd route->4chn-audio-out] -> [pd master]);
#X restore 384 259 pd read me;
#N canvas 275 327 596 261 route->4chn-audio-out 0;
#X obj 25 20 inlet;
#N canvas 529 294 607 260 master 0;
#X obj 45 19 catch~ chn1;
#X obj 123 18 catch~ chn2;
#X obj 200 19 catch~ chn3;
#X obj 278 19 catch~ chn4;
#X obj 45 151 *~;
#X obj 124 150 *~;
#X obj 199 147 *~;
#X obj 277 146 *~;
#X obj 52 175 dac~ 1;
#X obj 132 174 dac~ 2;
#X text 333 172 4 chn-out;
#X obj 462 83 pack f 25;
#X obj 463 55 inlet;
#X text 503 56 masterfader;
#X obj 462 104 line~;
#X floatatom 345 49 3 0 0 0 - - -;
#X obj 369 70 line~;
#X obj 369 17 inlet;
#X text 367 0 number of active ctl-points;
#X obj 45 111 /~;
#X obj 124 110 /~;
#X obj 199 107 /~;
#X obj 277 106 /~;
#X floatatom 33 219 5 0 0 0 - - -;
#X text 68 218 dB;
#X floatatom 111 219 5 0 0 0 - - -;
#X text 146 218 dB;
#X obj 34 197 env~ 8192;
#X obj 112 197 env~ 8192;
#X floatatom 192 219 5 0 0 0 - - -;
#X text 227 218 dB;
#X floatatom 270 219 5 0 0 0 - - -;
#X text 305 218 dB;
#X obj 193 197 env~ 8192;
#X obj 271 197 env~ 8192;
#X text 338 221 check;
#X text 309 105 amp-divisor;
#X obj 408 19 init 1;
#X obj 207 172 dac~ 3;
#X obj 288 173 dac~ 4;
#X text 455 192 [1]________[2] \; ______________ \; [4]________[3]
\;;
#X obj 369 49 pack f 100;
#X connect 0 0 19 0;
#X connect 1 0 20 0;
#X connect 2 0 21 0;
#X connect 3 0 22 0;
#X connect 4 0 8 0;
#X connect 4 0 27 0;
#X connect 5 0 9 0;
#X connect 5 0 28 0;
#X connect 6 0 33 0;
#X connect 6 0 38 0;
#X connect 7 0 34 0;
#X connect 7 0 39 0;
#X connect 11 0 14 0;
#X connect 12 0 11 0;
#X connect 14 0 4 1;
#X connect 14 0 5 1;
#X connect 14 0 6 1;
#X connect 14 0 7 1;
#X connect 16 0 19 1;
#X connect 16 0 20 1;
#X connect 16 0 21 1;
#X connect 16 0 22 1;
#X connect 17 0 15 0;
#X connect 17 0 41 0;
#X connect 19 0 4 0;
#X connect 20 0 5 0;
#X connect 21 0 6 0;
#X connect 22 0 7 0;
#X connect 27 0 23 0;
#X connect 28 0 25 0;
#X connect 33 0 29 0;
#X connect 34 0 31 0;
#X connect 37 0 41 0;
#X connect 41 0 16 0;
#X restore 339 111 pd master;
#X obj 27 52 s xy-data-stream;
#X text 136 51 r in route2audio;
#X obj 338 18 inlet;
#X text 374 18 number of active ctl-points;
#X floatatom 407 111 4 0 0 0 - - -;
#N canvas 288 72 1066 171 signals~ 0;
#X obj 15 124 s~ sig-1;
#X obj 74 124 s~ sig-2;
#X obj 138 123 s~ sig-3;
#X obj 197 124 s~ sig-4;
#X obj 272 124 s~ sig-5;
#X obj 331 124 s~ sig-6;
#X obj 395 123 s~ sig-7;
#X obj 454 124 s~ sig-8;
#X obj 517 125 s~ sig-9;
#X obj 581 124 s~ sig-10;
#X obj 650 123 s~ sig-11;
#X obj 716 122 s~ sig-12;
#X obj 783 124 s~ sig-13;
#X obj 846 125 s~ sig-14;
#X obj 910 124 s~ sig-15;
#X obj 979 123 s~ sig-16;
#X obj 394 86 osc~ 700;
#X obj 456 85 osc~ 800;
#X obj 519 86 osc~ 900;
#X obj 581 85 osc~ 1000;
#X obj 643 84 osc~ 1100;
#X obj 705 83 osc~ 1200;
#X obj 772 86 osc~ 1300;
#X obj 834 85 osc~ 1400;
#X obj 896 84 osc~ 1500;
#X obj 958 83 osc~ 1600;
#X obj 332 87 osc~ 600;
#X obj 17 88 osc~ 200;
#X obj 79 87 osc~ 250;
#X obj 141 86 osc~ 300;
#X obj 203 85 osc~ 400;
#X obj 270 88 osc~ 500;
#X text 13 15 die zu bewegenden klänge müssen hier den entsprechenden
ctl-points zugewiesen werden;
#X text 11 51 replace osc~s;
#X connect 16 0 6 0;
#X connect 17 0 7 0;
#X connect 18 0 8 0;
#X connect 19 0 9 0;
#X connect 20 0 10 0;
#X connect 21 0 11 0;
#X connect 22 0 12 0;
#X connect 23 0 13 0;
#X connect 24 0 14 0;
#X connect 25 0 15 0;
#X connect 26 0 5 0;
#X connect 27 0 0 0;
#X connect 28 0 1 0;
#X connect 29 0 2 0;
#X connect 30 0 3 0;
#X connect 31 0 4 0;
#X restore 239 19 pd signals~;
#X text 321 152 !! kein ctl-point -> kein audio-output !!;
#X text 172 17 --------->;
#X obj 393 88 hsl 128 15 0 1 0 0 empty empty amp 4 -8 0 10 -262144
-1 -1 1270 1;
#X obj 124 97 route2audio 10;
#X obj 26 76 route2audio 1;
#X obj 251 225 route2audio 16;
#X obj 110 75 route2audio 9;
#X obj 40 98 route2audio 2;
#X obj 62 119 route2audio 3;
#X obj 76 141 route2audio 4;
#X obj 100 161 route2audio 5;
#X obj 114 183 route2audio 6;
#X obj 141 203 route2audio 7;
#X obj 155 225 route2audio 8;
#X obj 148 117 route2audio 11;
#X obj 166 139 route2audio 12;
#X obj 180 161 route2audio 13;
#X obj 204 181 route2audio 14;
#X obj 227 205 route2audio 15;
#X obj 390 56 init 0.1;
#X connect 0 0 2 0;
#X connect 4 0 1 0;
#X connect 10 0 1 1;
#X connect 10 0 6 0;
#X connect 27 0 10 0;
#X restore 103 366 pd route->4chn-audio-out;
#X obj 244 52 loadbang;
#X text 324 324 m_doettlinger@gmx.at;
#X text 311 335 SEM MOZARTEUM SALZBURG;
#X obj 34 20 tgl 33 0 empty empty empty 17 7 0 10 -262144 -1 -1 0 1
;
#X obj 267 101 s clear-grid;
#X text 75 28 go;
#N canvas 580 118 454 396 kreis 0;
#X floatatom 121 103 5 0 0 0 - radius -;
#X floatatom 240 115 5 0 0 0 - time -;
#X obj 273 137 tgl 15 0 empty loop empty 0 -6 0 8 -262144 -1 -1 0 1
;
#X text 118 84 radius;
#X text 292 134 loop 0n/off;
#X obj 200 100 tgl 15 0 empty dir empty 0 -6 0 8 -262144 -1 -1 0 1
;
#X text 199 80 direction 1=clockwise;
#X text 222 91 0=counterclockwise;
#X obj 123 202 t b f;
#X floatatom 288 159 5 0 0 0 - start -;
#N canvas 494 52 355 503 kreis 0;
#X obj 254 57 gate;
#X msg 186 175 set \$1;
#X msg 137 273 3000;
#X obj 97 129 * 2;
#X obj 97 170 * 3.14159;
#X obj 86 388 t b f;
#X obj 86 303 line 0 10;
#X floatatom 40 353 0 0 0 0 - - -;
#X obj 36 413 poltocar;
#X obj 186 152 inlet;
#X obj 254 35 inlet;
#X obj 150 84 inlet;
#X obj 74 33 inlet;
#X obj 36 33 inlet;
#X obj 114 61 delay 10;
#X obj 97 191 t f f b;
#X obj 96 149 *;
#X floatatom 86 326 5 0 0 0 - - -;
#X obj 155 323 select 100;
#X obj 35 467 outlet;
#X obj 150 105 * 2;
#X obj 150 125 - 1;
#X msg 137 240 bang;
#X obj 86 467 outlet;
#X msg 95 107 1;
#X obj 293 35 inlet;
#X msg 155 345 0;
#X obj 87 362 + 1;
#X obj 284 372 deg2rad;
#X obj 36 440 + 100;
#X obj 87 440 + 100;
#X obj 64 60 sel 0 1;
#X msg 67 260 stop;
#X obj 33 387 f 90;
#X msg 114 86 bang;
#X connect 0 0 14 0;
#X connect 1 0 2 0;
#X connect 2 0 6 1;
#X connect 3 0 16 0;
#X connect 4 0 15 0;
#X connect 5 0 33 0;
#X connect 5 1 8 1;
#X connect 6 0 17 0;
#X connect 7 0 33 1;
#X connect 8 0 29 0;
#X connect 8 1 30 0;
#X connect 9 0 1 0;
#X connect 10 0 0 0;
#X connect 11 0 20 0;
#X connect 12 0 31 0;
#X connect 13 0 7 0;
#X connect 14 0 34 0;
#X connect 15 0 18 1;
#X connect 15 1 6 0;
#X connect 15 2 22 0;
#X connect 16 0 4 0;
#X connect 17 0 18 0;
#X connect 17 0 27 0;
#X connect 18 0 0 1;
#X connect 18 0 26 0;
#X connect 20 0 21 0;
#X connect 21 0 16 1;
#X connect 22 0 2 0;
#X connect 24 0 3 0;
#X connect 25 0 28 0;
#X connect 26 0 6 0;
#X connect 27 0 5 0;
#X connect 28 0 27 1;
#X connect 29 0 19 0;
#X connect 30 0 23 0;
#X connect 31 0 32 0;
#X connect 31 1 24 0;
#X connect 32 0 6 0;
#X connect 33 0 8 0;
#X connect 34 0 24 0;
#X restore 123 179 pd kreis ___________________;
#X obj 164 101 tgl 15 0 empty empty empty 17 7 0 10 -262144 -1 -1 0
1;
#X text 274 113 time (msec.);
#X obj 122 276 pack f f f;
#N canvas 1113 140 149 156 init 0;
#X obj 21 12 loadbang;
#X msg 21 37 \; radius 100 \; dir 0 \; time 3000 \; loop 0 \; start
90 \; ctl-point 7 \;;
#X connect 0 0 1 0;
#X restore 318 30 pd init;
#X text 163 85 GO;
#X text 323 161 startpos (in deg);
#X obj 121 300 outlet;
#X text 28 227 set ctl.point-nr.;
#X obj 123 251 f;
#X floatatom 138 229 3 0 0 0 - ctl-point -;
#X text 37 340 if radius >= 145 -> kreisbewegung nur zwischen den jew.
benachbarten ecken;
#X text 216 27 KREIS-BEWEGUNG;
#X obj 167 28 inlet;
#X obj 166 52 t f f;
#X connect 0 0 10 0;
#X connect 1 0 10 3;
#X connect 2 0 10 4;
#X connect 5 0 10 2;
#X connect 8 0 19 0;
#X connect 8 1 13 1;
#X connect 9 0 10 5;
#X connect 10 0 8 0;
#X connect 10 1 13 2;
#X connect 11 0 10 1;
#X connect 13 0 17 0;
#X connect 19 0 13 0;
#X connect 20 0 19 1;
#X connect 23 0 24 0;
#X connect 24 0 11 0;
#X connect 24 1 2 0;
#X restore 33 80 pd kreis;
#X text 34 366 AUDIO --->;
#X text 267 115 = mute (vgl. [route2audio] ) \; keine envs !;
#X text 296 201 4chn-setup für raum 4010 \; (SEM mozarteum);
#X text 323 309 (c) doettlinger 2013;
#X connect 0 0 1 0;
#X connect 1 0 3 1;
#X connect 2 0 3 1;
#X connect 2 0 11 0;
#X connect 3 0 6 0;
#X connect 3 1 6 1;
#X connect 7 0 2 0;
#X connect 10 0 13 0;
#X connect 10 0 2 0;
#X connect 13 0 3 0;
