#N canvas 319 24 851 329 10;
#N canvas 131 102 478 502 controller 1;
#X msg 346 379 traverse \$1 \, bang;
#X obj 346 400 pointer;
#X obj 106 458 outlet;
#X obj 104 164 inlet;
#X obj 7 21 outlet;
#X obj 6 -4 struct \$0-controller float x0 float y0 float id float
color;
#X obj 106 422 append \$0-controller x0 y0 id color;
#X obj 346 352 makefilename pd-%s;
#X text 164 100 polygon-indices;
#X floatatom 108 238 5 0 0 0 - - -;
#X obj 180 314 expr 255 * pow(2 \, $f1);
#X obj 9 102 drawnumber id x0 y0 999;
#X text 139 164 idx x/y;
#X obj 107 189 unpack f f f;
#X obj 107 361 pack f f 0 0;
#X obj 106 316 t b f;
#X obj 107 341 f;
#X msg 106 397 \$1 \$2 \$3 \$4;
#X obj 106 260 t a a b b b;
#X obj 348 315 symbol \$0-show;
#X obj 9 49 filledpolygon color 999 1 x0(0:200)(0:200) y0(0:200)(0:200)
x0(0:200)(10:210) y0(0:200)(0:200) x0(0:200)(10:210) y0(0:200)(10:210)
x0(0:200)(0:200) y0(0:200)(10:210);
#X text 208 332 farbe;
#N canvas 378 22 366 484 seq 0;
#X obj 192 174 t l;
#X obj 106 155 list prepend;
#X obj 185 269 list split 1;
#X obj 156 293 list append;
#X obj 51 240 list length;
#X floatatom 62 263 5 0 0 0 - - -;
#X obj 51 182 list append;
#X obj 54 204 t l l;
#X obj 98 49 inlet;
#X obj 124 94 once;
#X obj 99 73 t f b;
#X floatatom 82 400 0 0 0 0 - - -;
#X obj 82 376 + 1;
#X msg 13 347 stop;
#X obj 81 353 float;
#X msg 120 354 0;
#X obj 13 321 select 1;
#X obj 53 282 t b b f;
#X obj 186 383 outlet;
#X obj 162 108 t b b;
#X obj 157 410 bang;
#X text 105 132 nivelliert die dauer der max 16 getr.;
#X obj 58 153 t b b;
#X text 203 112 clear;
#X text 135 50 ctl-p-numbers;
#X text -5 -26 fügt zwischen gleichzeitig getriggerten ctl-p-numbers
ein delay von 10 msec ein \, damit die dynamische data-structures implementation
nicht überfordert wird (das kann bei der erzeugeung von vielen gleichzeitigen
ctl-points zu knacksern führen);
#X obj 81 327 metro 10;
#X text 140 326 nicht < 10 !;
#X obj 50 132 delay 1;
#X connect 0 0 1 1;
#X connect 1 0 0 0;
#X connect 1 0 6 1;
#X connect 2 0 18 0;
#X connect 2 1 3 1;
#X connect 3 0 2 0;
#X connect 4 0 5 0;
#X connect 4 0 17 0;
#X connect 6 0 7 0;
#X connect 7 0 4 0;
#X connect 7 1 2 0;
#X connect 8 0 10 0;
#X connect 9 0 28 0;
#X connect 10 0 1 0;
#X connect 10 1 9 0;
#X connect 12 0 11 0;
#X connect 12 0 14 1;
#X connect 12 0 16 0;
#X connect 12 0 20 0;
#X connect 13 0 26 0;
#X connect 14 0 12 0;
#X connect 15 0 14 1;
#X connect 16 0 13 0;
#X connect 17 0 26 0;
#X connect 17 1 15 0;
#X connect 17 2 16 1;
#X connect 19 0 9 1;
#X connect 19 1 1 1;
#X connect 20 0 3 0;
#X connect 22 0 6 0;
#X connect 22 1 19 0;
#X connect 26 0 14 0;
#X connect 28 0 22 0;
#X restore 109 214 pd seq stream;
#X connect 0 0 1 0;
#X connect 1 0 6 4;
#X connect 3 0 13 0;
#X connect 5 0 4 0;
#X connect 6 0 2 0;
#X connect 7 0 0 0;
#X connect 9 0 18 0;
#X connect 10 0 14 3;
#X connect 13 0 22 0;
#X connect 13 1 16 1;
#X connect 13 2 14 1;
#X connect 14 0 17 0;
#X connect 15 0 16 0;
#X connect 15 1 14 2;
#X connect 16 0 14 0;
#X connect 17 0 6 0;
#X connect 18 0 15 0;
#X connect 18 1 10 0;
#X connect 18 4 19 0;
#X connect 19 0 7 0;
#X connect 22 0 9 0;
#X restore 455 129 pd controller;
#N canvas 0 22 259 177 \$0-pointer-pool 0;
#X restore 384 268 pd \$0-pointer-pool;
#X obj 689 203 makefilename pd-%s;
#X obj 689 180 symbol \$0-pointer-pool;
#X obj 627 235 pack 0 \$0 s;
#X msg 628 259 \; \$3 obj 100 100 ctl-parser \$1 \$2;
#X msg 382 215 clear;
#X obj 530 153 t p p;
#X obj 530 274 s \$0-pointer;
#X obj 530 239 pack 0 p;
#X obj 530 209 t f f;
#X obj 277 155 r \$0-result;
#X obj 689 154 loadbang;
#N canvas 123 362 360 217 clear-all 0;
#X msg 23 128 \; \$1 clear;
#X obj 181 105 makefilename pd-%s;
#X obj 181 75 symbol \$0-show;
#X obj 23 106 makefilename pd-%s;
#X obj 23 76 symbol \$0-pointer-pool;
#X obj 22 45 t b b;
#X obj 22 19 inlet;
#X connect 1 0 0 0;
#X connect 2 0 1 0;
#X connect 3 0 0 0;
#X connect 4 0 3 0;
#X connect 5 0 4 0;
#X connect 5 1 2 0;
#X connect 6 0 5 0;
#X restore 383 241 pd clear-all;
#X obj 392 191 loadbang;
#X obj 263 261 outlet;
#X obj 276 123 s \$0-set;
#X obj 260 23 inlet;
#N canvas 62 148 236 220 output 0;
#X obj 43 32 inlet;
#X obj 43 66 route change;
#X obj 43 147 pack 0 0 0;
#X obj 42 181 s \$0-result;
#X obj 41 98 get \$0-controller id x0 y0;
#X connect 0 0 1 0;
#X connect 1 0 4 0;
#X connect 2 0 3 0;
#X connect 4 0 2 0;
#X connect 4 1 2 1;
#X connect 4 2 2 2;
#X restore 455 154 pd output;
#X obj 379 11 inlet;
#N canvas 104 95 976 493 routefirst 0;
#X obj 22 7 inlet;
#X obj 368 14 inlet;
#X obj 21 165 once;
#X obj 80 172 once;
#X obj 112 171 once;
#X obj 144 171 once;
#X obj 367 67 bng 15 250 50 0 empty empty empty 17 7 0 10 -262144 -1
-1;
#X obj 185 172 once;
#X obj 217 172 once;
#X obj 249 171 once;
#X obj 281 171 once;
#X obj 317 173 once;
#X obj 349 172 once;
#X obj 410 173 once;
#X obj 23 206 f 1;
#X obj 80 210 f 2;
#X obj 112 209 f 3;
#X obj 142 210 f 4;
#X obj 184 206 f 5;
#X obj 214 207 f 6;
#X obj 246 206 f 7;
#X obj 276 207 f 8;
#X obj 324 203 f 9;
#X obj 356 202 f 10;
#X obj 692 245 t b b;
#X obj 689 197 once;
#X obj 690 221 sel 1;
#X obj 718 265 f;
#X obj 706 135 t f f;
#X msg 697 319 ctl-point-nr.: \$1 -> !!! out of range !!!;
#X obj 19 442 outlet;
#X obj 20 32 list split 1;
#X text 63 186 mehrfach dieselben ctl-points vermeiden;
#X obj 417 385 f 0;
#X obj 445 385 + 1;
#X text 292 409 nr of active ctl-pts;
#X floatatom 424 408 5 0 0 0 - - -;
#X msg 434 363 1;
#X obj 417 431 outlet;
#X obj 721 345 print control_grid-ERROR;
#X obj 445 173 once;
#X obj 481 173 once;
#X obj 517 172 once;
#X obj 551 171 once;
#X obj 589 172 once;
#X obj 597 203 f 16;
#X obj 418 204 f 11;
#X obj 453 204 f 12;
#X obj 489 203 f 13;
#X obj 525 203 f 14;
#X obj 559 202 f 15;
#X obj 22 69 sel 1 2 3 4 5 6 7 8 9 10 11 12 13 14 15 16;
#X obj 689 161 > 16;
#X msg 725 295 MAX ctl-points: 16;
#X text 690 110 ERROR-msg if ctl-pnt-nr > 16;
#X obj 19 359 t a b b b;
#X floatatom 145 40 5 0 0 0 - - -;
#X obj 19 413 pack f f f;
#X obj 49 392 unpack;
#X text 393 66 clear;
#X text 159 394 clear = pos 100 100;
#X msg 102 392 100 100;
#X connect 0 0 31 0;
#X connect 1 0 6 0;
#X connect 2 0 14 0;
#X connect 3 0 15 0;
#X connect 4 0 16 0;
#X connect 5 0 17 0;
#X connect 6 0 5 1;
#X connect 6 0 4 1;
#X connect 6 0 3 1;
#X connect 6 0 2 1;
#X connect 6 0 7 1;
#X connect 6 0 8 1;
#X connect 6 0 9 1;
#X connect 6 0 10 1;
#X connect 6 0 11 1;
#X connect 6 0 12 1;
#X connect 6 0 13 1;
#X connect 6 0 25 1;
#X connect 6 0 37 0;
#X connect 6 0 40 1;
#X connect 6 0 41 1;
#X connect 6 0 42 1;
#X connect 6 0 43 1;
#X connect 6 0 44 1;
#X connect 6 0 61 0;
#X connect 7 0 18 0;
#X connect 8 0 19 0;
#X connect 9 0 20 0;
#X connect 10 0 21 0;
#X connect 11 0 22 0;
#X connect 12 0 23 0;
#X connect 13 0 46 0;
#X connect 14 0 55 0;
#X connect 15 0 55 0;
#X connect 16 0 55 0;
#X connect 17 0 55 0;
#X connect 18 0 55 0;
#X connect 19 0 55 0;
#X connect 20 0 55 0;
#X connect 21 0 55 0;
#X connect 22 0 55 0;
#X connect 23 0 55 0;
#X connect 24 0 53 0;
#X connect 24 1 27 0;
#X connect 25 0 26 0;
#X connect 26 0 24 0;
#X connect 27 0 29 0;
#X connect 28 0 52 0;
#X connect 28 1 27 1;
#X connect 29 0 39 0;
#X connect 31 0 51 0;
#X connect 31 1 58 0;
#X connect 33 0 34 0;
#X connect 33 0 36 0;
#X connect 33 0 38 0;
#X connect 34 0 33 1;
#X connect 37 0 33 1;
#X connect 40 0 47 0;
#X connect 41 0 48 0;
#X connect 42 0 49 0;
#X connect 43 0 50 0;
#X connect 44 0 45 0;
#X connect 45 0 55 0;
#X connect 46 0 55 0;
#X connect 47 0 55 0;
#X connect 48 0 55 0;
#X connect 49 0 55 0;
#X connect 50 0 55 0;
#X connect 51 0 2 0;
#X connect 51 1 3 0;
#X connect 51 2 4 0;
#X connect 51 3 5 0;
#X connect 51 4 7 0;
#X connect 51 5 8 0;
#X connect 51 6 9 0;
#X connect 51 7 10 0;
#X connect 51 8 11 0;
#X connect 51 9 12 0;
#X connect 51 10 13 0;
#X connect 51 11 40 0;
#X connect 51 12 41 0;
#X connect 51 13 42 0;
#X connect 51 14 43 0;
#X connect 51 15 44 0;
#X connect 51 16 28 0;
#X connect 52 0 25 0;
#X connect 53 0 39 0;
#X connect 55 0 57 0;
#X connect 55 1 25 1;
#X connect 55 3 33 0;
#X connect 56 0 51 0;
#X connect 57 0 30 0;
#X connect 58 0 57 1;
#X connect 58 1 57 2;
#X connect 61 0 58 0;
#X restore 455 107 pd routefirst;
#X text 423 8 new controller point/clear;
#X obj 379 32 route clear;
#X obj 530 180 get \$0-controller id;
#X obj 262 45 t l l;
#X obj 5 32 cnv 15 220 245 empty empty control_grid 10 13 0 12 -66577
-262144 0;
#X text 14 12 see [control_grid-help] for more info;
#X text 11 -3 [control_grid] zur steuerung von x/y-daten \;;
#N canvas 12 295 646 460 \$0-show 0;
#X coords 0 210 210 0 210 210 1;
#X restore 10 53 pd \$0-show;
#X obj 115 159 image grid.gif;
#X obj 573 130 outlet;
#X text 616 130 nr of active points;
#N canvas 531 181 281 307 clip 0;
#X obj -48 13 inlet;
#X obj -46 276 outlet;
#X text -3 11 clip if out of range;
#X obj -47 42 unpack f f f;
#X obj -12 94 min 200;
#X obj -13 116 max 0;
#X obj 38 94 min 200;
#X obj 37 116 max 0;
#X obj -45 139 pack f f f;
#X text -13 157 controller-range x/y jew. 0 bis 200;
#X obj -23 184 > 16;
#X obj -23 205 sel 0 1;
#X obj -46 253 spigot 0;
#X msg -24 225 1;
#X msg 5 226 0;
#X obj -49 62 t f f;
#X text 17 250 block data with idx > 16;
#X connect 0 0 3 0;
#X connect 3 0 15 0;
#X connect 3 1 4 0;
#X connect 3 2 6 0;
#X connect 4 0 5 0;
#X connect 5 0 8 1;
#X connect 6 0 7 0;
#X connect 7 0 8 2;
#X connect 8 0 12 0;
#X connect 10 0 11 0;
#X connect 11 0 13 0;
#X connect 11 1 14 0;
#X connect 12 0 1 0;
#X connect 13 0 12 1;
#X connect 14 0 12 1;
#X connect 15 0 8 0;
#X connect 15 1 10 0;
#X restore 262 69 pd clip;
#X text 672 23 (c) doettlinger 2012;
#X text 660 36 SEM MOZARTEUM SALZBURG;
#X text 285 171 mouse-klick;
#X text 295 22 idx x/y;
#X text 13 289 basiert auf der ds-impementation von frank barknecht
\; (fbar@footils.org);
#X connect 0 0 18 0;
#X connect 0 1 7 0;
#X connect 2 0 4 2;
#X connect 3 0 2 0;
#X connect 4 0 5 0;
#X connect 6 0 13 0;
#X connect 7 0 23 0;
#X connect 7 1 9 1;
#X connect 9 0 8 0;
#X connect 10 0 9 0;
#X connect 10 1 4 0;
#X connect 11 0 15 0;
#X connect 12 0 3 0;
#X connect 14 0 6 0;
#X connect 17 0 24 0;
#X connect 19 0 22 0;
#X connect 20 0 0 0;
#X connect 20 1 30 0;
#X connect 22 0 6 0;
#X connect 22 0 20 1;
#X connect 22 1 20 0;
#X connect 23 0 10 0;
#X connect 24 0 32 0;
#X connect 24 1 20 0;
#X connect 32 0 16 0;
#X connect 32 0 15 0;
#X coords 0 -1 1 1 220 245 1 5 32;
